<?xml version="1.0" encoding="UTF-8"?>
<svg version="1.1" xmlns="http://www.w3.org/2000/svg" width="1024" height="561">
<path d="M0 0 C89.76 0 179.52 0 272 0 C272 52 272 52 261 65 C257.99084104 68.65978793 254.98931209 72.3241732 252 76 C244.96843308 84.61333717 237.90154915 93.1973394 230.83056641 101.77832031 C227.88632412 105.3516205 224.9432036 108.92584428 222 112.5 C220.83333904 113.91667137 219.66667237 115.33333803 218.5 116.75 C217.9225 117.45125 217.345 118.1525 216.75 118.875 C197.5 142.25 197.5 142.25 195.7487793 144.37646484 C194.5861588 145.78822989 193.42356102 147.20001364 192.26098633 148.61181641 C189.28260241 152.22863422 186.30378282 155.84509182 183.32421875 159.4609375 C175.90002692 168.47054563 175.90002692 168.47054563 168.5 177.5 C162.96297024 184.27544122 157.39510975 191.02547676 151.83056641 197.77832031 C148.88632412 201.3516205 145.9432036 204.92584428 143 208.5 C141.83333904 209.91667137 140.66667237 211.33333803 139.5 212.75 C138.9225 213.45125 138.345 214.1525 137.75 214.875 C135.125 218.0625 135.125 218.0625 132.5 221.25 C131.9217749 221.95213623 131.3435498 222.65427246 130.74780273 223.37768555 C129.58848314 224.78541921 128.42914092 226.19313424 127.26977539 227.60083008 C124.24050687 231.27901439 121.21170559 234.95758211 118.18359375 238.63671875 C117.55646484 239.39855469 116.92933594 240.16039062 116.28320312 240.9453125 C115.09034807 242.39441049 113.89763017 243.84362139 112.70507812 245.29296875 C112.16173828 245.95296875 111.61839844 246.61296875 111.05859375 247.29296875 C110.58736084 247.8655542 110.11612793 248.43813965 109.63061523 249.02807617 C107.4280237 251.69169824 105.21269548 254.34476542 103 257 C158.77 257.33 214.54 257.66 272 258 C272 279.12 272 300.24 272 322 C182.24 322 92.48 322 0 322 C0 272.63237028 0 272.63237028 14.625 254.9375 C15.84637354 253.45704723 17.06772713 251.97657801 18.2890625 250.49609375 C18.90426758 249.75085449 19.51947266 249.00561523 20.15332031 248.23779297 C23.1050718 244.66088205 26.05238133 241.08031669 29 237.5 C30.16664383 236.08331453 31.33331053 234.66664789 32.5 233.25 C33.0775 232.54875 33.655 231.8475 34.25 231.125 C95.5 156.75 95.5 156.75 97.2512207 154.62353516 C98.4138412 153.21177011 99.57643898 151.79998636 100.73901367 150.38818359 C103.71739759 146.77136578 106.69621718 143.15490818 109.67578125 139.5390625 C117.09997308 130.52945437 117.09997308 130.52945437 124.5 121.5 C130.03702976 114.72455878 135.60489025 107.97452324 141.16943359 101.22167969 C144.11367593 97.64837944 147.05678176 94.07414382 150 90.5 C157 82 164 73.5 171 65 C86.355 64.505 86.355 64.505 0 64 C0 42.88 0 21.76 0 0 Z " fill="#0E1C2B" transform="translate(357,102)"/>
<path d="M0 0 C21.45 0 42.9 0 65 0 C74.55566269 20.19896178 84.08321899 40.40627162 93.46582031 60.68603516 C96.01341294 66.18906226 98.56985521 71.68797656 101.125 77.1875 C104.91663539 85.34987813 108.70196254 93.5151302 112.48046875 101.68359375 C120.41501823 118.83297532 128.37531038 135.96876832 136.43807983 153.05828857 C141.19615401 163.14447335 145.90528551 173.25159281 150.56640625 183.38305664 C154.32962538 191.55979441 158.12704682 199.72020788 161.9375 207.875 C167.01215737 218.73610833 172.070302 229.60469747 177.11401367 240.48022461 C180.12488893 246.9696883 183.14480643 253.45479313 186.17660522 259.93450928 C188.49193298 264.88348202 190.80149167 269.83512061 193.10708618 274.78863525 C194.82632517 278.48217735 196.54856116 282.17428915 198.27441406 285.86474609 C200.26032322 290.11281849 202.23787958 294.36470179 204.21057129 298.618927 C204.98286397 300.28104836 205.75782179 301.94193413 206.53552246 303.60153198 C207.62197384 305.92121527 208.69877374 308.24514976 209.7734375 310.5703125 C210.10082916 311.26372238 210.42822083 311.95713226 210.76553345 312.67155457 C212.33737658 316.09898413 213 318.15306619 213 322 C187.59 322 162.18 322 136 322 C131.33718059 312.67436117 126.74265404 303.46482389 122.57421875 293.9296875 C120.5524514 289.31610162 118.51814627 284.70814197 116.48046875 280.1015625 C116.11835297 279.28230286 115.75623718 278.46304321 115.38314819 277.61895752 C111.14850619 268.05228967 106.82305 258.52694999 102.5 249 C96.28460495 235.29619411 90.12414663 221.5699875 84.03076172 207.81152344 C78.58203817 195.5128978 73.05535665 183.25079578 67.5 171 C60.40694606 155.35801548 53.39078065 139.68378891 46.42999268 123.98254395 C46.12051697 123.28447632 45.81104126 122.58640869 45.4921875 121.8671875 C45.1906073 121.18684448 44.8890271 120.50650146 44.57830811 119.80554199 C40.75575213 111.18711957 36.88509845 102.59038434 33 94 C28.27353177 103.22511128 23.88734495 112.54679733 19.72198486 122.03649902 C17.99213866 125.9758775 16.24961663 129.90964753 14.5078125 133.84375 C14.14219208 134.67001892 13.77657166 135.49628784 13.39987183 136.34759521 C9.1945063 145.83898998 4.9114134 155.29500145 0.625 164.75 C-0.98583256 168.30461706 -2.59646632 171.85932417 -4.20703125 175.4140625 C-4.60591049 176.29434113 -5.00478973 177.17461975 -5.41575623 178.08157349 C-9.64693097 187.42236755 -13.85660509 196.77280155 -18.0625 206.125 C-18.43179626 206.94609253 -18.80109253 207.76718506 -19.18157959 208.61315918 C-21.04334255 212.75273514 -22.9048101 216.89244385 -24.76611328 221.03222656 C-28.13462086 228.5238169 -31.50594307 236.01414059 -34.87701416 243.50457764 C-35.99350773 245.98557333 -37.10981978 248.46665062 -38.22607422 250.94775391 C-41.70080065 258.67077446 -45.17665652 266.39328075 -48.65646362 274.11401367 C-50.27767962 277.71122868 -51.89826125 281.30872932 -53.51879883 284.90625 C-54.28215602 286.60040224 -55.04581464 288.29441871 -55.80981445 289.98828125 C-56.87791251 292.3564127 -57.94491105 294.72503703 -59.01171875 297.09375 C-59.3121257 297.7590271 -59.61253265 298.4243042 -59.92204285 299.10974121 C-63.34385981 306.71339913 -66.65726116 314.35945407 -70 322 C-96.07 322 -122.14 322 -149 322 C-147.51406025 317.54218074 -145.97451671 313.61226337 -143.98046875 309.3984375 C-143.68585754 308.77312134 -143.39124634 308.14780518 -143.08770752 307.50354004 C-142.45421396 306.15985098 -141.81920989 304.81687321 -141.18283081 303.47454834 C-139.82289022 300.60589304 -138.47033367 297.73377648 -137.11732483 294.86184692 C-136.42233345 293.38679774 -135.7269677 291.91192489 -135.03123474 290.43722534 C-131.80482381 283.59628666 -128.61650773 276.73810529 -125.4375 269.875 C-120.97246645 260.24335329 -116.49242796 250.61888661 -112 241 C-107.59500613 231.56674382 -103.196517 222.13053015 -98.8125 212.6875 C-98.03386597 211.01034912 -98.03386597 211.01034912 -97.23950195 209.29931641 C-94.38782786 203.15391411 -91.53989642 197.0067951 -88.69554138 190.85800171 C-80.39164764 172.90714873 -72.06732562 154.96722138 -63.63031006 137.07849121 C-57.55987767 124.20732625 -51.55236315 111.30796725 -45.57226562 98.39453125 C-42.90534306 92.63662886 -40.23412407 86.88072211 -37.5625 81.125 C-37.02568604 79.96814697 -36.48887207 78.81129395 -35.93579102 77.61938477 C-32.9066322 71.09472956 -29.86792445 64.57464395 -26.82023621 58.05862427 C-17.78845022 38.74741723 -8.88770431 19.37810941 0 0 Z " fill="#0E1C2B" transform="translate(811,102)"/>
<path d="M0 0 C22.77 0 45.54 0 69 0 C69.04524076 25.13124146 69.08204372 50.26244967 69.10362434 75.39372158 C69.11391332 87.06400961 69.12792794 98.73427045 69.15087891 110.40454102 C69.17088586 120.58271732 69.1837337 130.76087391 69.18817699 140.93906933 C69.19077205 146.32253242 69.19682142 151.70593915 69.21146011 157.08938408 C69.22515976 162.16923943 69.22919794 167.24901586 69.22621536 172.32888794 C69.22676004 174.1810302 69.23066302 176.03317545 69.23841095 177.88530159 C69.29849335 193.00530961 68.42573873 207.8297579 64.75 222.5625 C64.53311523 223.44325195 64.31623047 224.32400391 64.09277344 225.23144531 C55.87314648 257.49026577 37.02934674 286.22795552 8.625 304.1875 C6.42928516 305.48001299 4.22081985 306.75111543 2 308 C0.94554687 308.59554688 -0.10890625 309.19109375 -1.1953125 309.8046875 C-21.11531877 320.40043551 -44.44562025 326.36968319 -67 327 C-67.72944824 327.02046387 -68.45889648 327.04092773 -69.21044922 327.06201172 C-111.80329091 328.07953074 -152.78045255 317.79520399 -184.63525391 288.28857422 C-207.79500751 266.19433672 -219.62548739 236.24185497 -224 205 C-224.13148438 204.06542969 -224.26296875 203.13085938 -224.3984375 202.16796875 C-227.5472849 174.46662204 -222.24810714 148.39743945 -204.875 126 C-193.3467578 111.59768633 -174.8119174 91.18685236 -156 87 C-155.99191315 87.83984436 -155.98382629 88.67968872 -155.97549438 89.54498291 C-155.89637712 97.60081854 -155.80877575 105.65651284 -155.71247292 113.71216202 C-155.66328253 117.85006873 -155.61697229 121.9879588 -155.578125 126.12597656 C-157.55999945 189.08852612 -157.55999945 189.08852612 -132.140625 244.203125 C-111.91409567 261.18159853 -87.00035311 262.95014375 -61.42578125 260.78173828 C-45.3786047 258.73262619 -30.47400663 251.40459684 -20 239 C-3.45630069 216.25241345 -2.12681149 184.24186472 -1.43774414 157.22900391 C-1.41777378 156.50087596 -1.39780342 155.77274802 -1.3772279 155.02255559 C-0.94304582 139.17813709 -0.7868717 123.33400997 -0.69667697 107.48446226 C-0.67416268 103.67961455 -0.64710751 99.87479856 -0.62062073 96.06997681 C-0.57154671 88.92772619 -0.52630751 81.78545716 -0.48259836 74.64317191 C-0.42302739 64.9474759 -0.35722338 55.25182207 -0.29184818 45.55616379 C-0.18961506 30.37080466 -0.09544185 15.18540686 0 0 Z " fill="#0E1C2B" transform="translate(233,102)"/>
<path d="M0 0 C0 14.85 0 29.7 0 45 C-3.465 45.66 -6.93 46.32 -10.5 47 C-56.55549239 56.3878102 -101.06540574 79.41193378 -135 112 C-135.56895996 112.54172852 -136.13791992 113.08345703 -136.72412109 113.64160156 C-166.24428249 141.87968002 -185.17529529 178.53363043 -191 219 C-191.33 219 -191.66 219 -192 219 C-193.69229261 161.0519957 -174.25946484 109.23138605 -134.6875 66.84765625 C-110.46227521 41.17877708 -79.30166002 20.83726048 -46 9 C-44.76121094 8.55140625 -43.52242187 8.1028125 -42.24609375 7.640625 C-28.32563476 2.72531949 -14.77236846 0 0 0 Z " fill="#EE8803" transform="translate(192,29)"/>
<path d="M0 0 C0 13.53 0 27.06 0 41 C-3.609375 42.11375 -7.21875 43.2275 -10.9375 44.375 C-29.90811899 50.37511495 -48.48201566 57.52002294 -66 67 C-67.14984375 67.61101562 -68.2996875 68.22203125 -69.484375 68.8515625 C-83.128345 76.35265913 -95.68229497 85.30643312 -107 96 C-108.35008458 97.15064027 -109.70411589 98.2966696 -111.0625 99.4375 C-133.81380261 119.41314369 -148.73103944 147.87718599 -155.42504883 177.05566406 C-156.05611474 179.1897655 -156.95363855 181.04008767 -158 183 C-159.86229112 141.09844978 -142.64872222 99.68221431 -114.625 68.9375 C-113.22995616 67.44237321 -111.82504658 65.95771683 -110.41210938 64.47949219 C-109.4756544 63.4983516 -108.54457769 62.51204753 -107.61914062 61.52050781 C-95.50334889 48.55883217 -81.19433984 38.08887087 -66 29 C-65.39929688 28.63986816 -64.79859375 28.27973633 -64.1796875 27.90869141 C-17.14450198 0 -17.14450198 0 0 0 Z " fill="#79868C" transform="translate(158,95)"/>
<path d="M0 0 C5.61 0 11.22 0 17 0 C17.56509277 1.58458008 18.13018555 3.16916016 18.71240234 4.80175781 C20.58226604 10.04317747 22.45446546 15.28375877 24.32825279 20.52377701 C25.4639869 23.70010927 26.59878749 26.87676854 27.73144531 30.05419922 C29.03474519 33.70885741 30.34127146 37.36234812 31.6484375 41.015625 C32.25635635 42.72362274 32.25635635 42.72362274 32.8765564 44.46612549 C33.25679962 45.52692322 33.63704285 46.58772095 34.02880859 47.68066406 C34.5284462 49.07964935 34.5284462 49.07964935 35.03817749 50.50689697 C36.06910645 53.29705152 36.06910645 53.29705152 38 57 C44.27 38.19 50.54 19.38 57 0 C62.28 0 67.56 0 73 0 C75.86961301 7.0177112 78.46795174 14.0747663 80.890625 21.2578125 C81.24010193 22.28687714 81.58957886 23.31594177 81.949646 24.37619019 C83.05230027 27.62493993 84.15121184 30.87494089 85.25 34.125 C86.00235587 36.34383421 86.75495773 38.56258502 87.5078125 40.78125 C89.34138464 46.18653983 91.17189552 51.59285868 93 57 C94.64720213 52.5213358 96.29285301 48.04210304 97.9375 43.5625 C98.18377136 42.89182495 98.43004272 42.2211499 98.68377686 41.53015137 C102.59130053 30.88469692 106.45610133 20.22485231 110.26928711 9.54516602 C110.61612549 8.57635498 110.96296387 7.60754395 111.3203125 6.609375 C111.62211426 5.76342773 111.92391602 4.91748047 112.23486328 4.04589844 C113 2 113 2 114 0 C119.61 0 125.22 0 131 0 C130.32060264 4.07638418 129.76287174 7.05162642 128.37695312 10.7824707 C128.0454274 11.68310745 127.71390167 12.5837442 127.37232971 13.51167297 C127.01227341 14.4733287 126.6522171 15.43498444 126.28125 16.42578125 C125.90697372 17.4387175 125.53269745 18.45165375 125.14707947 19.49528503 C123.93622584 22.76950574 122.71817456 26.04099687 121.5 29.3125 C120.26133217 32.65549884 119.02442574 35.99914561 117.78770447 39.34286499 C116.97634351 41.53630395 116.16438681 43.72952263 115.3518219 45.92251587 C111.95609705 55.09343748 108.63113083 64.28756895 105.375 73.5090332 C105.06433594 74.38261475 104.75367188 75.25619629 104.43359375 76.15625 C104.04772095 77.25163086 104.04772095 77.25163086 103.65405273 78.36914062 C103 80 103 80 102 81 C99.13732433 81.07325168 96.299281 81.09238205 93.4375 81.0625 C92.63119141 81.05798828 91.82488281 81.05347656 90.99414062 81.04882812 C88.99606244 81.03700518 86.99802217 81.01906914 85 81 C84.76418716 80.31317642 84.52837433 79.62635284 84.28541565 78.91871643 C82.06650125 72.45763504 79.84479985 65.99751821 77.61993504 59.53848362 C76.47611109 56.21751117 75.33338194 52.89617029 74.19311523 49.57397461 C72.88326246 45.75783956 71.56872071 41.94333466 70.25390625 38.12890625 C69.63824547 36.33206139 69.63824547 36.33206139 69.01014709 34.49891663 C68.62982834 33.3978508 68.24950958 32.29678497 67.85766602 31.16235352 C67.52235367 30.18750504 67.18704132 29.21265656 66.84156799 28.20826721 C66.19456789 26.05825482 66.19456789 26.05825482 65 25 C58.73 43.48 52.46 61.96 46 81 C40.06 81 34.12 81 28 81 C27.5781543 79.80963135 27.15630859 78.6192627 26.72167969 77.39282227 C25.09739606 72.81066838 23.47163822 68.22903884 21.84521484 63.64764404 C21.11682959 61.59583343 20.38863853 59.54395386 19.66064453 57.49200439 C15.90270444 46.90298947 12.13545008 36.31825956 8.265625 25.76953125 C7.98354187 24.99970413 7.70145874 24.22987701 7.41082764 23.4367218 C6.09945462 19.86090257 4.78210502 16.28744271 3.45605469 12.71704102 C2.99140018 11.45464 2.52687374 10.19219183 2.0625 8.9296875 C1.66160156 7.84929199 1.26070313 6.76889648 0.84765625 5.65576172 C0 3 0 3 0 0 Z " fill="#209ADB" transform="translate(391,480)"/>
<path d="M0 0 C0 11.55 0 23.1 0 35 C-3.444375 36.8975 -6.88875 38.795 -10.4375 40.75 C-47.63080741 61.57972943 -76.69622637 90.18096812 -98 127 C-98.36577148 127.62165039 -98.73154297 128.24330078 -99.10839844 128.88378906 C-111.80247834 150.61271644 -119.28564298 175.3943647 -124 200 C-124.33 200 -124.66 200 -125 200 C-125.29820486 190.65722238 -124.48835978 181.88455543 -122.875 172.6875 C-122.76362701 172.04070282 -122.65225403 171.39390564 -122.5375061 170.72750854 C-114.2405636 122.72476618 -96.28251608 77.1910074 -63 41 C-62.49919922 40.4539209 -61.99839844 39.9078418 -61.48242188 39.34521484 C-47.67838426 24.48780398 -21.61778617 0 0 0 Z " fill="#1E9BDD" transform="translate(125,0)"/>
<path d="M0 0 C17 0 17 0 21.1953125 3.234375 C22.7097168 5.38378906 22.7097168 5.38378906 24.125 7.75 C25.2585733 9.40662052 26.39270868 11.06285652 27.52734375 12.71875 C28.09179199 13.58628906 28.65624023 14.45382812 29.23779297 15.34765625 C32.19211871 19.79428896 35.45600125 24.00303914 38.6875 28.25 C39.93457801 29.91723298 41.18069035 31.58518877 42.42578125 33.25390625 C49.76702616 43.50312243 49.76702616 43.50312243 58 53 C58.33 35.51 58.66 18.02 59 0 C64.28 0 69.56 0 75 0 C76.70563104 1.70563104 76.12587612 3.8516213 76.13552856 6.12675476 C76.13249222 7.22706779 76.13249222 7.22706779 76.12939453 8.34960938 C76.13202301 9.50321709 76.13202301 9.50321709 76.13470459 10.68013 C76.1391234 13.23469263 76.13618502 15.78918661 76.1328125 18.34375 C76.13348553 20.11112481 76.13445555 21.87849953 76.13571167 23.64587402 C76.13718868 27.35490803 76.13503398 31.063918 76.13037109 34.77294922 C76.1246738 39.53822493 76.12795279 44.30344432 76.13394356 49.06871796 C76.13754908 52.71971057 76.13641062 56.37068973 76.13381577 60.02168274 C76.13314647 61.77924099 76.133975 63.53680045 76.13629532 65.2943573 C76.13882171 67.74640154 76.13498146 70.19835331 76.12939453 72.65039062 C76.13141876 73.38393265 76.13344299 74.11747467 76.13552856 74.87324524 C76.11426264 79.88573736 76.11426264 79.88573736 75 81 C69.63824974 82.18705416 64.27166488 82.89484509 59 81 C54.04229988 77.11651143 50.79149589 71.47902986 47.44775391 66.22705078 C45.40949325 63.09163532 43.13249511 60.17924521 40.8125 57.25 C40.01714844 56.21617187 39.22179687 55.18234375 38.40234375 54.1171875 C36.75112339 51.9746284 35.09772632 49.83391585 33.44140625 47.6953125 C33.01174561 47.1394043 32.58208496 46.58349609 32.1394043 46.01074219 C30.96643462 44.4932877 29.79187787 42.97706036 28.6171875 41.4609375 C25.01026706 36.69118898 21.51726557 31.83624016 18 27 C17.67 44.82 17.34 62.64 17 81 C11.39 81 5.78 81 0 81 C0 54.27 0 27.54 0 0 Z " fill="#209BDC" transform="translate(55,480)"/>
<path d="M0 0 C46.9127182 0 46.9127182 0 55.5859375 8.56640625 C62.41395582 16.01061159 63.64382546 22.24186721 63.40625 32.26953125 C62.46887471 40.87716014 58.47229085 46.27923542 51.8671875 51.625 C50.27744516 52.79568892 48.64270273 53.90486485 47 55 C48.06927734 56.16015625 48.06927734 56.16015625 49.16015625 57.34375 C54.02692485 62.63338293 58.87441923 67.92901235 63.5625 73.37890625 C64.98395177 75.0415055 64.98395177 75.0415055 66.6875 76.52734375 C68 78 68 78 68 81 C50.57760956 83.05012114 50.57760956 83.05012114 45.0546875 79.88525391 C41.25808888 76.53227958 38.62384028 72.28984683 36 68 C31.72381805 60.96195406 31.72381805 60.96195406 24.83984375 57.1640625 C21.14508899 56.78324291 21.14508899 56.78324291 16 57 C16 64.92 16 72.84 16 81 C10.72 81 5.44 81 0 81 C0 54.27 0 27.54 0 0 Z M16 15 C16 23.91 16 32.82 16 42 C19.3 41.9175 22.6 41.835 26 41.75 C27.02351562 41.73420898 28.04703125 41.71841797 29.1015625 41.70214844 C34.97308836 41.48628352 40.27400431 40.75769958 45 37 C47.54584356 32.7402981 47.54663341 28.85028694 47 24 C45.60831254 20.44346538 44.47115344 19.29982492 41.25 17.25 C35.29700856 14.96038791 29.38486378 14.88154988 23.0625 14.9375 C19.5665625 14.9684375 19.5665625 14.9684375 16 15 Z " fill="#1F9ADD" transform="translate(693,480)"/>
<path d="M0 0 C20.79 0 41.58 0 63 0 C63 4.95 63 9.9 63 15 C47.82 15 32.64 15 17 15 C17 20.61 17 26.22 17 32 C19.51496094 31.98839844 22.02992188 31.97679687 24.62109375 31.96484375 C27.0469551 31.95705327 29.47281507 31.95097646 31.89868164 31.94506836 C33.58944316 31.9400281 35.28020029 31.93319595 36.97094727 31.92456055 C39.39600707 31.91248143 41.82100944 31.90676877 44.24609375 31.90234375 C45.38672523 31.89460182 45.38672523 31.89460182 46.55039978 31.88670349 C48.3673257 31.88650762 50.18413127 31.93802723 52 32 C53 33 53 33 53.1328125 36.125 C53.13023437 37.40375 53.12765625 38.6825 53.125 40 C53.12886719 41.918125 53.12886719 41.918125 53.1328125 43.875 C53 47 53 47 52 48 C49.40640678 48.08851529 46.83960309 48.11525945 44.24609375 48.09765625 C43.47064713 48.0962413 42.6952005 48.09482635 41.89625549 48.09336853 C39.40996506 48.08775345 36.9237634 48.07519846 34.4375 48.0625 C32.75586067 48.05748694 31.07421994 48.0529237 29.39257812 48.04882812 C25.26165671 48.03862832 21.13092818 48.01905605 17 48 C17 53.61 17 59.22 17 65 C32.18 65 47.36 65 63 65 C63 70.28 63 75.56 63 81 C42.21 81 21.42 81 0 81 C0 54.27 0 27.54 0 0 Z " fill="#219ADA" transform="translate(180,480)"/>
<path d="M0 0 C1.72169152 1.39747688 3.27375885 2.86259855 4.8046875 4.46484375 C3.35686957 7.9091264 1.52774141 9.82615337 -1.3203125 12.21484375 C-2.04476562 12.8284375 -2.76921875 13.44203125 -3.515625 14.07421875 C-4.06992187 14.533125 -4.62421875 14.99203125 -5.1953125 15.46484375 C-9.4216593 13.9651723 -13.15422336 11.83892874 -17.01171875 9.5859375 C-21.22939353 7.42051234 -25.04083518 7.27923934 -29.7578125 7.21484375 C-30.89347656 7.1890625 -32.02914062 7.16328125 -33.19921875 7.13671875 C-36.15861688 7.22392574 -36.15861688 7.22392574 -38.0859375 8.75 C-39.8808951 11.52459994 -39.37660615 14.2619892 -39.1953125 17.46484375 C-32.13314222 21.33737816 -25.12696268 23.22318216 -17.328125 25.08789062 C-8.32037873 27.3772555 -1.62831894 30.79471702 3.8046875 38.46484375 C6.79149636 44.78798166 7.16316893 51.64077202 4.8125 58.2578125 C0.4348275 66.4319411 -6.6492278 70.44244794 -15.1953125 73.46484375 C-19.0828548 73.897237 -22.97348676 73.83507918 -26.8828125 73.83984375 C-27.92115234 73.86433594 -28.95949219 73.88882813 -30.02929688 73.9140625 C-41.50736974 73.9572402 -49.77315628 70.14941806 -58.1953125 62.46484375 C-60.7578125 59.52734375 -60.7578125 59.52734375 -62.1953125 57.46484375 C-60.76290562 54.13486693 -59.01294726 52.06555415 -56.3203125 49.65234375 C-55.64226563 49.02714844 -54.96421875 48.40195312 -54.265625 47.7578125 C-52.1953125 46.46484375 -52.1953125 46.46484375 -50.171875 46.5546875 C-47.79329957 47.64996038 -46.31483056 49.00895209 -44.4453125 50.83984375 C-37.20010358 57.30214548 -31.06805642 57.79975393 -21.46484375 57.86328125 C-17.8991542 57.42875277 -16.00623819 56.67671971 -13.1953125 54.46484375 C-11.85871105 51.10891512 -11.85871105 51.10891512 -12.1953125 47.46484375 C-16.36157118 41.49596542 -22.18976563 40.84834644 -29.0078125 39.40234375 C-47.50293049 35.36889407 -47.50293049 35.36889407 -52.5703125 29.02734375 C-53.26253906 28.19396484 -53.26253906 28.19396484 -53.96875 27.34375 C-57.6838175 21.6528345 -57.92059644 16.07608581 -57.1953125 9.46484375 C-55.37176326 2.82850949 -50.85082701 -1.81727019 -45.1953125 -5.53515625 C-30.85454173 -12.66760309 -12.57607569 -8.94562365 0 0 Z " fill="#1F9ADC" transform="translate(983.1953125,487.53515625)"/>
<path d="M0 0 C22.44 0 44.88 0 68 0 C68 4.95 68 9.9 68 15 C59.42 15 50.84 15 42 15 C42 36.78 42 58.56 42 81 C36.72 81 31.44 81 26 81 C26 59.22 26 37.44 26 15 C17.42 15 8.84 15 0 15 C0 10.05 0 5.1 0 0 Z " fill="#209BDC" transform="translate(283,480)"/>
<path d="M0 0 C0.9497168 -0.01595215 1.89943359 -0.0319043 2.87792969 -0.04833984 C7.22595377 0.01131073 11.55679868 0.18905339 15.89453125 0.4921875 C14.3296227 3.76322181 12.60698322 6.12468808 10.14453125 8.8046875 C8.94570313 10.11373047 8.94570313 10.11373047 7.72265625 11.44921875 C3.85416167 15.62055003 -0.03072932 19.77671204 -3.91943359 23.92919922 C-8.71677796 29.05676232 -13.43872017 34.24518182 -18.10546875 39.4921875 C-15.87748317 43.61396082 -13.21929993 46.55830853 -9.85546875 49.8046875 C-6.01563944 53.51977659 -2.45482232 57.34273736 1.03857422 61.38452148 C4.85705402 65.72087194 8.89739252 69.85778894 12.90429688 74.01953125 C13.54947266 74.69886719 14.19464844 75.37820313 14.859375 76.078125 C15.73517212 76.99150635 15.73517212 76.99150635 16.62866211 77.92333984 C17.89453125 79.4921875 17.89453125 79.4921875 17.89453125 81.4921875 C-1.40520755 83.12414148 -1.40520755 83.12414148 -7.32421875 79.546875 C-9.55337128 76.98020994 -11.33782286 74.39229684 -13.10546875 71.4921875 C-14.20104044 70.17546792 -15.32519621 68.88185075 -16.48046875 67.6171875 C-17.03476562 66.98039063 -17.5890625 66.34359375 -18.16015625 65.6875 C-20.60833881 62.92469157 -23.10579935 60.20828398 -25.60546875 57.4921875 C-32.23601456 50.27303811 -32.23601456 50.27303811 -35.16796875 46.9921875 C-35.69519531 46.404375 -36.22242188 45.8165625 -36.765625 45.2109375 C-38.18015176 43.39638422 -39.14883479 41.57938886 -40.10546875 39.4921875 C-38.92791016 38.22375 -38.92791016 38.22375 -37.7265625 36.9296875 C-32.68805797 31.49292031 -27.66318774 26.05524473 -22.8125 20.44921875 C-20.01181577 17.23836566 -17.15594829 14.08094542 -14.24609375 10.96875 C-12.07416115 8.61365083 -12.07416115 8.61365083 -10.71484375 6.078125 C-7.99956271 1.66189204 -5.13133393 0.06897843 0 0 Z " fill="#1F9ADB" transform="translate(869.10546875,479.5078125)"/>
<path d="M0 0 C0 4.95 0 9.9 0 15 C-1.52625 15.680625 -3.0525 16.36125 -4.625 17.0625 C-11.00549926 20.27531151 -14.9697419 24.20312806 -17.875 30.75 C-20.48452424 38.76496731 -19.55087205 46.50371457 -16 54 C-15.03465478 55.35863401 -14.04722851 56.70343137 -13 58 C-13 58.66 -13 59.32 -13 60 C-10.11980724 61.46652017 -7.20691485 62.82047874 -4.25 64.125 C-2.8475 64.74375 -1.445 65.3625 0 66 C0 70.95 0 75.9 0 81 C-9.4389625 80.63696298 -18.57868741 76.19753103 -25.4765625 69.75390625 C-28.58798403 66.17178249 -30.8639676 62.2202822 -33 58 C-33.34289062 57.32453125 -33.68578125 56.6490625 -34.0390625 55.953125 C-37.75888341 46.98383719 -37.39989445 34.91357844 -34.25 25.8125 C-32.56626305 21.89366153 -30.59236683 18.40248147 -28 15 C-27.443125 14.175 -26.88625 13.35 -26.3125 12.5 C-19.6111489 5.2552961 -9.90333245 0 0 0 Z " fill="#209ADA" transform="translate(596,480)"/>
<path d="M0 0 C10.71821657 0.4122391 19.79175196 5.6720612 27.0234375 13.4296875 C35.32775147 24.228578 36.72236181 34.79304533 36 48 C34.45068322 58.24823299 28.88128356 67.19075412 20.6875 73.4375 C14.06127429 77.87625092 8.04659638 81 0 81 C0 76.05 0 71.1 0 66 C1.52625 65.319375 3.0525 64.63875 4.625 63.9375 C11.00549926 60.72468849 14.9697419 56.79687194 17.875 50.25 C20.37474186 42.49630968 19.71591401 34.67512337 16.39453125 27.29296875 C12.55404443 20.97821871 6.82579596 17.4174694 0 15 C0 10.05 0 5.1 0 0 Z " fill="#ED8906" transform="translate(610,480)"/>
<path d="M0 0 C5.28 0 10.56 0 16 0 C16 26.73 16 53.46 16 81 C10.72 81 5.44 81 0 81 C0 54.27 0 27.54 0 0 Z " fill="#1E9BE0" transform="translate(806,480)"/>
<path d="M0 0 C22.44 0 44.88 0 68 0 C68 4.95 68 9.9 68 15 C59.75 15 51.5 15 43 15 C43 13.35 43 11.7 43 10 C45.97 10 48.94 10 52 10 C52.495 11.485 52.495 11.485 53 13 C53.66 13 54.32 13 55 13 C55.33 12.01 55.66 11.02 56 10 C58.31 10 60.62 10 63 10 C63 8.68 63 7.36 63 6 C61.02 6 59.04 6 57 6 C57 5.34 57 4.68 57 4 C54.525 3.01 54.525 3.01 52 2 C51.484375 2.66 50.96875 3.32 50.4375 4 C47.20004245 6.65637543 45.07447719 6.31342132 41 6 C41 5.34 41 4.68 41 4 C37.24972766 1.52180496 34.23782945 1.99575213 29.875 2.4375 C23.19444444 3.09722222 23.19444444 3.09722222 21 2 C18.76761382 2.1158177 16.53817734 2.29186014 14.3125 2.5 C9.29230697 2.90760046 4.91637746 3.05350945 0 2 C0 1.34 0 0.68 0 0 Z " fill="#3C92BE" transform="translate(283,480)"/>
<path d="M0 0 C20.79 0 41.58 0 63 0 C63 1.98 63 3.96 63 6 C62.505 5.01 62.505 5.01 62 4 C61.05898437 4.08378906 60.11796875 4.16757812 59.1484375 4.25390625 C57.90320313 4.35574219 56.65796875 4.45757812 55.375 4.5625 C54.14523438 4.66691406 52.91546875 4.77132813 51.6484375 4.87890625 C48 5 48 5 44.7265625 4.40234375 C41.7877132 3.6574743 41.7877132 3.6574743 39 6 C36.66800612 6.07905064 34.33167378 6.08798769 32 6 C32 5.34 32 4.68 32 4 C31.34 4 30.68 4 30 4 C30 3.34 30 2.68 30 2 C27.13275314 2.57344937 26.1385485 2.8614515 24 5 C22.125 5.23046875 22.125 5.23046875 20 5.1875 C19.29875 5.18105469 18.5975 5.17460937 17.875 5.16796875 C16 5 16 5 14 4 C14 3.34 14 2.68 14 2 C7.565 2.495 7.565 2.495 1 3 C0.67 3.99 0.34 4.98 0 6 C0 4.02 0 2.04 0 0 Z " fill="#3C91C0" transform="translate(180,480)"/>
<path d="M0 0 C5.28 0 10.56 0 16 0 C16 26.73 16 53.46 16 81 C15.67 81 15.34 81 15 81 C14.67 56.25 14.34 31.5 14 6 C9.28941438 4.6278958 9.28941438 4.6278958 6 6 C4.68 6 3.36 6 2 6 C1.67 30.75 1.34 55.5 1 81 C0.67 81 0.34 81 0 81 C0 54.27 0 27.54 0 0 Z " fill="#3295C7" transform="translate(806,480)"/>
<path d="M0 0 C5.17781223 -0.02477057 10.35558975 -0.04289347 15.53344727 -0.05493164 C17.29387005 -0.0599517 19.05428868 -0.0667691 20.81469727 -0.07543945 C23.34913154 -0.08760703 25.88351054 -0.09325166 28.41796875 -0.09765625 C29.20149216 -0.10281754 29.98501556 -0.10797882 30.7922821 -0.11329651 C34.65591139 -0.11369066 38.245165 0.0555724 42 1 C41.67 1.66 41.34 2.32 41 3 C38.37264802 3.26125082 35.82127489 3.42165499 33.1875 3.5 C26.83665513 3.67321891 26.83665513 3.67321891 21 6 C17.75 6.125 17.75 6.125 15 6 C15 5.34 15 4.68 15 4 C12.08347826 3.83318891 12.08347826 3.83318891 9 4 C8.34 4.66 7.68 5.32 7 6 C4.67724823 6.40047444 2.34260643 6.7397104 0 7 C0 4.69 0 2.38 0 0 Z " fill="#3A92C1" transform="translate(693,480)"/>
<path d="M0 0 C14.85 0 29.7 0 45 0 C45 1.65 45 3.3 45 5 C44.505 4.01 44.505 4.01 44 3 C43.05898437 3.08378906 42.11796875 3.16757812 41.1484375 3.25390625 C39.90320313 3.35574219 38.65796875 3.45757813 37.375 3.5625 C36.14523438 3.66691406 34.91546875 3.77132812 33.6484375 3.87890625 C30.24009534 3.9920311 27.3421125 3.57237921 24 3 C22.7934375 3.5259375 22.7934375 3.5259375 21.5625 4.0625 C17.92848268 5.39201853 15.6324245 4.10270029 12 3 C9.34533951 3.23043864 9.34533951 3.23043864 7 4 C5.8553125 4.2784375 5.8553125 4.2784375 4.6875 4.5625 C4.130625 4.706875 3.57375 4.85125 3 5 C3 4.34 3 3.68 3 3 C2.01 3 1.02 3 0 3 C0 2.01 0 1.02 0 0 Z " fill="#3893C5" transform="translate(198,545)"/>
<path d="M0 0 C4.68139254 -0.02465288 9.36274759 -0.04283739 14.04418945 -0.05493164 C15.63794614 -0.05997157 17.23169819 -0.0668035 18.82543945 -0.07543945 C21.11150253 -0.08751999 23.39750467 -0.09323155 25.68359375 -0.09765625 C26.40026718 -0.10281754 27.11694061 -0.10797882 27.85533142 -0.11329651 C29.57063672 -0.11349263 31.28581266 -0.06192007 33 0 C34 1 34 1 34.09765625 4.16015625 C34.08605469 5.44792969 34.07445312 6.73570312 34.0625 8.0625 C34.05347656 9.35285156 34.04445312 10.64320313 34.03515625 11.97265625 C34.02355469 12.97167969 34.01195312 13.97070312 34 15 C33.67 15 33.34 15 33 15 C33 12.03 33 9.06 33 6 C31.02 6 29.04 6 27 6 C27 5.01 27 4.02 27 3 C23.75016865 4.08784968 23.75016865 4.08784968 21 6 C18.32941149 6.14115161 15.67567762 6.04247107 13 6 C13 5.34 13 4.68 13 4 C12.34 4 11.68 4 11 4 C11 3.34 11 2.68 11 2 C7.7 2 4.4 2 1 2 C0.67 1.34 0.34 0.68 0 0 Z " fill="#3993C1" transform="translate(199,512)"/>
<path d="M0 0 C1.32 0 2.64 0 4 0 C4 14.85 4 29.7 4 45 C0.535 45.495 0.535 45.495 -3 46 C-2.88590407 44.54077307 -2.75834456 43.08259402 -2.625 41.625 C-2.55539063 40.81289062 -2.48578125 40.00078125 -2.4140625 39.1640625 C-2 37 -2 37 0 35 C0.99 35 1.98 35 3 35 C3 29.72 3 24.44 3 19 C2.01 19 1.02 19 0 19 C0 12.73 0 6.46 0 0 Z " fill="#DF8B20" transform="translate(188,29)"/>
<path d="M0 0 C0.33 0 0.66 0 1 0 C1 1.65 1 3.3 1 5 C1.66 5 2.32 5 3 5 C3.125 11.75 3.125 11.75 2 14 C1.86792808 17.96215765 1.85168578 21.31236134 2.6875 25.1875 C3.08284569 28.74561117 2.07927953 30.17217984 0 33 C-4.54796599 26.17805102 -3.61925617 16.9471208 -3 9 C-2.29144047 5.71261332 -1.34959816 3.09282913 0 0 Z " fill="#269DC0" transform="translate(563,503)"/>
<path d="M0 0 C0.33 0 0.66 0 1 0 C1 1.65 1 3.3 1 5 C-13.85 5 -28.7 5 -44 5 C-44 4.34 -44 3.68 -44 3 C-40.78548731 1.39274365 -37.56387464 1.94251815 -34 2 C-34 2.66 -34 3.32 -34 4 C-33.01 3.34 -32.02 2.68 -31 2 C-27.86328125 1.8046875 -27.86328125 1.8046875 -24.3125 1.875 C-23.13300781 1.89304687 -21.95351562 1.91109375 -20.73828125 1.9296875 C-19.38283203 1.96449219 -19.38283203 1.96449219 -18 2 C-18 2.66 -18 3.32 -18 4 C-17.360625 3.484375 -16.72125 2.96875 -16.0625 2.4375 C-11.85765543 0.46379745 -8.4546641 0.94012464 -4 2 C-2.64642612 2.62454781 -1.30562259 3.28057531 0 4 C0 2.68 0 1.36 0 0 Z " fill="#3A92C1" transform="translate(242,490)"/>
<path d="M0 0 C1.89492188 0.01353516 1.89492188 0.01353516 3.828125 0.02734375 C4.79234375 0.03894531 5.7565625 0.05054688 6.75 0.0625 C6.75 1.7125 6.75 3.3625 6.75 5.0625 C-1.5 5.0625 -9.75 5.0625 -18.25 5.0625 C-18.25 4.0725 -18.25 3.0825 -18.25 2.0625 C-15.28 2.5575 -15.28 2.5575 -12.25 3.0625 C-11.92 2.4025 -11.59 1.7425 -11.25 1.0625 C-7.62183731 -0.337689 -3.83524417 -0.03551152 0 0 Z " fill="#3593C7" transform="translate(301.25,489.9375)"/>
</svg>
